<svg xmlns="http://www.w3.org/2000/svg" width="20.262" height="24.906" viewBox="0 0 20.262 24.906">
  <g id="icon" transform="translate(-1304.502 -1383)">
    <g id="Group_116" data-name="Group 116">
      <path id="Fill-2" d="M1321.421,1396.248a5.668,5.668,0,0,1,2.692-4.75,5.832,5.832,0,0,0-4.566-2.472c-1.918-.2-3.783,1.152-4.759,1.152-.994,0-2.507-1.126-4.126-1.1a6.066,6.066,0,0,0-5.111,3.123c-2.208,3.826-.563,9.456,1.557,12.553,1.065,1.513,2.3,3.211,3.924,3.149,1.583-.061,2.181-1.012,4.09-1.012s2.455,1.012,4.108.977c1.707-.026,2.771-1.522,3.8-3.053a12.448,12.448,0,0,0,1.733-3.536,5.488,5.488,0,0,1-3.343-5.032" fill="#a5a5a5"/>
      <path id="Fill-3" d="M1318.3,1386.994a5.58,5.58,0,0,0,1.275-3.994,5.661,5.661,0,0,0-3.668,1.9,5.351,5.351,0,0,0-1.311,3.844,4.687,4.687,0,0,0,3.7-1.75" fill="#a5a5a5"/>
    </g>
  </g>
</svg>
