<svg xmlns="http://www.w3.org/2000/svg" width="24" height="22.94" viewBox="0 0 24 22.94">
  <g id="Group_118" data-name="Group 118" transform="translate(-1397 -1383.53)">
    <g id="Group_117" data-name="Group 117">
      <rect id="Rectangle_19" data-name="Rectangle 19" width="5.145" height="15.478" transform="translate(1397.304 1390.992)" fill="#a5a5a5"/>
      <path id="Path_146" data-name="Path 146" d="M1399.877,1388.878h-.034a2.939,2.939,0,1,1,.034,0Z" fill="#a5a5a5"/>
      <path id="Path_147" data-name="Path 147" d="M1421,1406.47h-5.144v-8.28c0-2.081-.745-3.5-2.607-3.5a2.816,2.816,0,0,0-2.639,1.882,3.521,3.521,0,0,0-.169,1.255v8.644H1405.3s.067-14.026,0-15.478h5.145v2.191a5.107,5.107,0,0,1,4.636-2.555c3.385,0,5.923,2.213,5.923,6.967Z" fill="#a5a5a5"/>
    </g>
  </g>
</svg>
