<svg xmlns="http://www.w3.org/2000/svg" width="22.793" height="24.437" viewBox="0 0 22.793 24.437">
  <g id="Group_120" data-name="Group 120" transform="translate(-1264.852 -1383)">
    <g id="Group_119" data-name="Group 119">
      <path id="Path_150" data-name="Path 150" d="M1264.852,1383.336l12.772,12.257c-1.378,1.532-11.851,11.425-12.554,11.844-.062-.089-.162-.173-.184-.273a2.54,2.54,0,0,1-.032-.531C1264.852,1398.9,1264.852,1391.163,1264.852,1383.336Z" fill="#a5a5a5"/>
      <path id="Path_151" data-name="Path 151" d="M1281.809,1391.7l-3.457,3.243c-.212-.191-.41-.362-.6-.542q-3.274-3.152-6.549-6.3c-1.78-1.7-3.577-3.388-5.387-5.1C1266.426,1383.1,1279.848,1390.414,1281.809,1391.7Z" fill="#a5a5a5"/>
      <path id="Path_152" data-name="Path 152" d="M1267.78,1406.269l10.589-9.985,2.569,2.807-13.112,7.241Z" fill="#a5a5a5"/>
      <path id="Path_153" data-name="Path 153" d="M1282.635,1392.2a21.815,21.815,0,0,1,5.01,2.945,3.565,3.565,0,0,1-.666.635c-1.636.91-3.288,1.789-4.967,2.7l-2.947-2.846Z" fill="#a5a5a5"/>
    </g>
  </g>
</svg>
