<svg xmlns="http://www.w3.org/2000/svg" width="25.883" height="21.03" viewBox="0 0 25.883 21.03">
  <path id="Path_148" data-name="Path 148" d="M1389.848,1386.975a11.076,11.076,0,0,1-3.058.838,5.28,5.28,0,0,0,2.335-2.933,10.617,10.617,0,0,1-3.365,1.284,5.306,5.306,0,0,0-9.179,3.629,5.487,5.487,0,0,0,.123,1.21,15.019,15.019,0,0,1-10.937-5.551,5.306,5.306,0,0,0,1.63,7.092,5.237,5.237,0,0,1-2.4-.653v.058a5.331,5.331,0,0,0,4.251,5.214,5.294,5.294,0,0,1-1.391.175,4.7,4.7,0,0,1-1.005-.091,5.358,5.358,0,0,0,4.959,3.7,10.66,10.66,0,0,1-6.579,2.264,10,10,0,0,1-1.27-.073,15.1,15.1,0,0,0,23.243-12.719c0-.234-.008-.461-.02-.685A10.611,10.611,0,0,0,1389.848,1386.975Z" transform="translate(-1363.965 -1384.485)" fill="#a5a5a5"/>
</svg>
