<svg xmlns="http://www.w3.org/2000/svg" width="16" height="16" viewBox="0 0 16 16">
  <path id="Path_154" data-name="Path 154" d="M1148,1388a8,8,0,1,0,8,8A8.009,8.009,0,0,0,1148,1388Zm-.469,3.927a10.966,10.966,0,0,1-2.093-.294c.108-.255.225-.5.351-.732a4.043,4.043,0,0,1,1.742-1.863Zm0,.938v2.666H1144.6a11.833,11.833,0,0,1,.512-3.013A11.873,11.873,0,0,0,1147.531,1392.865Zm0,3.6v2.666a11.873,11.873,0,0,0-2.416.347,11.833,11.833,0,0,1-.512-3.013Zm0,3.6v2.889a4.043,4.043,0,0,1-1.742-1.863c-.126-.232-.243-.477-.351-.732A10.966,10.966,0,0,1,1147.531,1400.073Zm.938,0a10.966,10.966,0,0,1,2.093.294c-.108.255-.225.5-.351.732a4.043,4.043,0,0,1-1.742,1.863Zm0-.938v-2.666h2.928a11.833,11.833,0,0,1-.512,3.013A11.873,11.873,0,0,0,1148.469,1399.135Zm0-3.6v-2.666a11.873,11.873,0,0,0,2.416-.347,11.833,11.833,0,0,1,.512,3.013Zm0-3.6v-2.889a4.043,4.043,0,0,1,1.742,1.863c.126.232.243.477.351.732A10.966,10.966,0,0,1,1148.469,1391.927Zm2.566-1.474a7.108,7.108,0,0,0-.758-1.139,7.069,7.069,0,0,1,2.5,1.489,8.808,8.808,0,0,1-1.308.566A9.416,9.416,0,0,0,1151.035,1390.453Zm-6.07,0a9.416,9.416,0,0,0-.434.916,8.808,8.808,0,0,1-1.308-.566,7.069,7.069,0,0,1,2.5-1.489A7.108,7.108,0,0,0,1144.965,1390.453Zm-.751,1.8a12.536,12.536,0,0,0-.549,3.281h-2.712a7.038,7.038,0,0,1,1.6-4.026A9.651,9.651,0,0,0,1144.214,1392.25Zm-.549,4.219a12.529,12.529,0,0,0,.549,3.281,9.651,9.651,0,0,0-1.658.745,7.038,7.038,0,0,1-1.6-4.026Zm.866,4.162a9.416,9.416,0,0,0,.434.916,7.108,7.108,0,0,0,.758,1.139,7.069,7.069,0,0,1-2.5-1.489A8.808,8.808,0,0,1,1144.531,1400.631Zm6.5.916a9.416,9.416,0,0,0,.434-.916,8.808,8.808,0,0,1,1.308.566,7.069,7.069,0,0,1-2.5,1.489A7.108,7.108,0,0,0,1151.035,1401.547Zm.751-1.8a12.536,12.536,0,0,0,.549-3.281h2.712a7.038,7.038,0,0,1-1.6,4.026A9.651,9.651,0,0,0,1151.786,1399.75Zm.549-4.219a12.529,12.529,0,0,0-.549-3.281,9.651,9.651,0,0,0,1.658-.745,7.038,7.038,0,0,1,1.6,4.026Z" transform="translate(-1140 -1388)" fill="#515154"/>
</svg>
