<svg xmlns="http://www.w3.org/2000/svg" width="25.43" height="17.805" viewBox="0 0 25.43 17.805">
  <path id="Path_149" data-name="Path 149" d="M1455.476,1390.858a3.188,3.188,0,0,0-2.241-2.242c-1.99-.544-9.95-.544-9.95-.544s-7.96,0-9.95.524a3.25,3.25,0,0,0-2.242,2.262,36.022,36.022,0,0,0,0,12.233,3.19,3.19,0,0,0,2.242,2.242c2.011.544,9.95.544,9.95.544s7.96,0,9.95-.524a3.185,3.185,0,0,0,2.241-2.241A33.545,33.545,0,0,0,1456,1397,31.856,31.856,0,0,0,1455.476,1390.858Zm-14.726,9.929v-7.625l6.62,3.813Z" transform="translate(-1430.57 -1388.072)" fill="#a5a5a5"/>
</svg>
